# xmcd
#
# Track frame offsets: 
#        150
#        44783
#        75558
#        118165
#        163303
#        245788
#
# Disc length: 3802 seconds
#
# Revision: 2
# Processed by: cddbd v1.5.2PL0 Copyright (c) Steve Scherf et al.
# Submitted via: ExactAudioCopyFreeDBPlugin 1.0
#
DISCID=550ed806
DTITLE=Schubert, Bracha Eden and Alexander Tamir - Schubert Edition CD39
DTITLE=Various Artist - Piano four hands III
DYEAR=1900
DGENRE=Classical
TTITLE0=No.1 in E flat: Allegro maestoso - 6 Grandes marches D.819
TTITLE1=No.2 in G minor: Allegro ma non troppo - 6 Grandes marches D.8
TTITLE1=19
TTITLE2=No.3 in B minor: Allegretto - 6 Grandes marches D.819
TTITLE3=No.4 in D: Allegro maestoso - 6 Grandes marches D.819
TTITLE4=No.5 in E flat minor: Andante - 6 Grandes marches D.819
TTITLE5=No.6 in E: Allegro con brio - 6 Grandes marches D.819
EXTD=
EXTT0=
EXTT1=
EXTT2=
EXTT3=
EXTT4=
EXTT5=
PLAYORDER=
